<svg width="70" height="71" viewBox="0 0 70 71" fill="none" xmlns="http://www.w3.org/2000/svg">
<rect width="70" height="71" fill="white"/>
<rect id="Rectangle 2" y="0.779816" width="70" height="70" fill="#254449"/>
<path id="JI" d="M32.276 6.904V8.888H26.196V43.64C26.196 50.296 24.7667 55.4587 21.908 59.128C19.9453 61.6453 17.172 63.032 13.588 63.288C12.7773 63.3307 12.116 63.0533 11.604 62.456C11.092 61.8587 10.836 61.1333 10.836 60.28C10.836 58.9573 11.476 58.1253 12.756 57.784C13.0973 57.6987 13.7587 57.976 14.74 58.616C15.764 59.256 16.66 59.512 17.428 59.384C18.4093 59.256 19.1133 58.5307 19.54 57.208C19.796 56.5253 19.924 54.776 19.924 51.96V8.888H13.908V6.904H32.276ZM54.19 49.016V51H35.886V49.016H41.902V8.888H35.886V6.904H54.19V8.888H48.238V49.016H54.19Z" fill="#F6F7F8"/>
</svg>
